<svg width="354" height="31" viewBox="0 0 354 31" fill="none" xmlns="http://www.w3.org/2000/svg">
<path d="M10.008 8.886C10.008 10.848 8.568 12 5.922 12H1.098V0.659999H5.724C8.532 0.659999 9.684 1.884 9.684 3.684C9.684 4.998 8.748 5.898 7.542 6.114C8.928 6.348 10.008 7.266 10.008 8.886ZM5.886 6.762H2.61V10.722H5.886C7.578 10.722 8.46 9.984 8.46 8.76C8.46 7.518 7.578 6.762 5.886 6.762ZM2.61 1.938V5.556H5.778C7.416 5.556 8.118 4.854 8.118 3.756C8.118 2.676 7.416 1.938 5.778 1.938H2.61ZM17.7247 9.21L18.9667 9.354C18.5707 11.136 17.2567 12.216 15.2947 12.216C12.9547 12.216 11.2447 10.632 11.2447 8.184C11.2447 5.7 12.9547 3.918 15.2227 3.918C17.7247 3.918 19.0027 5.7 19.0027 7.842V8.436H12.7387C12.8107 9.966 13.9087 11.046 15.3127 11.046C16.6267 11.046 17.4007 10.416 17.7247 9.21ZM12.7747 7.464H17.4727C17.4187 6.204 16.7167 5.052 15.2227 5.052C13.8007 5.052 12.9547 6.168 12.7747 7.464ZM20.8613 5.214H19.6553V4.134H20.8613V3.216C20.8613 1.542 21.8153 0.444 23.4713 0.444C24.8213 0.444 25.5773 1.056 25.9373 2.244L24.9113 2.604C24.7133 1.992 24.2633 1.524 23.5433 1.524C22.7153 1.524 22.3373 2.118 22.3373 3.054V4.134H24.5513V5.214H22.3373V12H20.8613V5.214ZM26.5735 8.076C26.5735 9.822 27.4555 11.064 29.0395 11.064C30.6415 11.064 31.5415 9.822 31.5415 8.076C31.5415 6.312 30.6415 5.088 29.0395 5.088C27.4555 5.088 26.5735 6.312 26.5735 8.076ZM33.0715 8.076C33.0715 10.524 31.3615 12.216 29.0395 12.216C26.7355 12.216 25.0435 10.524 25.0435 8.076C25.0435 5.628 26.7355 3.918 29.0395 3.918C31.3615 3.918 33.0715 5.628 33.0715 8.076ZM39.4598 4.278L39.3158 5.628C38.8838 5.394 38.5778 5.304 38.0918 5.304C36.9578 5.304 36.1118 6.33 36.1118 7.842V12H34.6178V4.134H36.1118V5.736C36.3998 4.836 37.2098 3.918 38.3438 3.918C38.8298 3.918 39.1898 4.044 39.4598 4.278ZM46.3243 9.21L47.5663 9.354C47.1703 11.136 45.8563 12.216 43.8943 12.216C41.5543 12.216 39.8443 10.632 39.8443 8.184C39.8443 5.7 41.5543 3.918 43.8223 3.918C46.3243 3.918 47.6023 5.7 47.6023 7.842V8.436H41.3383C41.4103 9.966 42.5083 11.046 43.9123 11.046C45.2263 11.046 46.0003 10.416 46.3243 9.21ZM41.3743 7.464H46.0723C46.0183 6.204 45.3163 5.052 43.8223 5.052C42.4003 5.052 41.5543 6.168 41.3743 7.464Z" fill="#071D49"/>
<path d="M257.069 8.886C257.069 7.59 255.989 6.888 254.567 6.888C254.117 6.888 253.757 6.906 253.487 6.942V5.664C253.739 5.7 254.063 5.718 254.567 5.718C255.755 5.718 256.853 5.232 256.853 3.774C256.853 2.55 256.061 1.704 254.495 1.704C252.893 1.704 251.903 2.748 251.903 4.548L250.391 4.494C250.391 2.154 251.957 0.444 254.513 0.444C257.015 0.444 258.401 1.74 258.401 3.648C258.401 5.106 257.321 6.096 256.205 6.276C257.591 6.474 258.635 7.518 258.635 8.994C258.635 10.884 257.051 12.216 254.549 12.216C251.849 12.216 250.193 10.686 250.193 8.166L251.723 8.238C251.759 10.038 252.857 10.956 254.567 10.956C256.043 10.956 257.069 10.236 257.069 8.886ZM269.909 5.628C270.323 4.656 271.295 3.918 272.555 3.918C274.607 3.918 275.327 5.34 275.327 7.122V12H273.833V7.248C273.833 5.934 273.293 5.106 272.087 5.106C270.971 5.106 270.071 6.042 270.071 7.482V12H268.577V7.248C268.577 5.934 268.037 5.106 266.831 5.106C265.715 5.106 264.833 6.042 264.833 7.482V12H263.339V4.134H264.833V5.538C265.211 4.584 266.129 3.918 267.335 3.918C268.739 3.918 269.567 4.602 269.909 5.628ZM278.322 8.076C278.322 9.822 279.204 11.064 280.788 11.064C282.39 11.064 283.29 9.822 283.29 8.076C283.29 6.312 282.39 5.088 280.788 5.088C279.204 5.088 278.322 6.312 278.322 8.076ZM284.82 8.076C284.82 10.524 283.11 12.216 280.788 12.216C278.484 12.216 276.792 10.524 276.792 8.076C276.792 5.628 278.484 3.918 280.788 3.918C283.11 3.918 284.82 5.628 284.82 8.076ZM287.86 7.482V12H286.366V4.134H287.86V5.538C288.238 4.584 289.3 3.918 290.47 3.918C292.522 3.918 293.35 5.286 293.35 7.122V12H291.856V7.248C291.856 5.934 291.226 5.106 289.984 5.106C288.796 5.106 287.86 6.042 287.86 7.482ZM295.566 10.164V5.214H294.378V4.404L294.882 4.314C295.62 4.17 295.782 3.81 295.962 3.054L296.196 1.956H297.042V4.134H299.256V5.214H297.042V9.984C297.042 10.686 297.33 11.01 298.014 11.01C298.518 11.01 299.04 10.794 299.49 10.542V11.55C298.914 11.982 298.338 12.216 297.474 12.216C296.358 12.216 295.566 11.694 295.566 10.164ZM302.291 7.482V12H300.797V0.659999H302.291V5.538C302.669 4.584 303.731 3.918 304.901 3.918C306.953 3.918 307.781 5.286 307.781 7.122V12H306.287V7.248C306.287 5.934 305.657 5.106 304.415 5.106C303.227 5.106 302.291 6.042 302.291 7.482ZM309.151 9.354L310.411 9.264C310.555 10.47 311.401 11.118 312.751 11.118C313.795 11.118 314.569 10.74 314.569 9.948C314.569 9.21 314.047 8.958 313.075 8.778L311.743 8.544C310.267 8.31 309.385 7.68 309.385 6.33C309.385 4.89 310.591 3.918 312.409 3.918C314.497 3.918 315.721 4.89 315.865 6.708L314.659 6.78C314.479 5.574 313.741 5.016 312.409 5.016C311.419 5.016 310.771 5.466 310.771 6.186C310.771 6.816 311.167 7.14 311.977 7.284L313.453 7.518C315.037 7.788 315.973 8.382 315.973 9.804C315.973 11.37 314.587 12.216 312.751 12.216C310.789 12.216 309.295 11.298 309.151 9.354ZM325.645 8.49V8.112L323.881 8.49C322.639 8.76 321.847 8.994 321.847 9.948C321.847 10.614 322.297 11.118 323.197 11.118C324.583 11.118 325.645 10.074 325.645 8.49ZM327.085 6.924V10.452C327.085 10.866 327.319 11.064 327.697 11.064C327.877 11.064 328.165 11.01 328.381 10.884V11.694C328.111 11.964 327.787 12.162 327.175 12.162C326.365 12.162 325.789 11.55 325.699 10.614C325.267 11.532 324.151 12.216 322.873 12.216C321.343 12.216 320.353 11.388 320.353 10.038C320.353 8.544 321.631 7.932 323.521 7.554L325.645 7.122V6.816C325.645 5.736 325.015 5.07 323.917 5.07C322.783 5.07 322.171 5.736 321.937 6.654L320.605 6.474C320.911 4.998 322.081 3.918 323.935 3.918C325.915 3.918 327.085 4.926 327.085 6.924ZM329.861 5.214H328.655V4.134H329.861V3.216C329.861 1.542 330.815 0.444 332.471 0.444C333.821 0.444 334.577 1.056 334.937 2.244L333.911 2.604C333.713 1.992 333.263 1.524 332.543 1.524C331.715 1.524 331.337 2.118 331.337 3.054V4.134H333.551V5.214H331.337V12H329.861V5.214ZM335.099 10.164V5.214H333.911V4.404L334.415 4.314C335.153 4.17 335.315 3.81 335.495 3.054L335.729 1.956H336.575V4.134H338.789V5.214H336.575V9.984C336.575 10.686 336.863 11.01 337.547 11.01C338.051 11.01 338.573 10.794 339.023 10.542V11.55C338.447 11.982 337.871 12.216 337.007 12.216C335.891 12.216 335.099 11.694 335.099 10.164ZM346.236 9.21L347.478 9.354C347.082 11.136 345.768 12.216 343.806 12.216C341.466 12.216 339.756 10.632 339.756 8.184C339.756 5.7 341.466 3.918 343.734 3.918C346.236 3.918 347.514 5.7 347.514 7.842V8.436H341.25C341.322 9.966 342.42 11.046 343.824 11.046C345.138 11.046 345.912 10.416 346.236 9.21ZM341.286 7.464H345.984C345.93 6.204 345.228 5.052 343.734 5.052C342.312 5.052 341.466 6.168 341.286 7.464ZM353.909 4.278L353.765 5.628C353.333 5.394 353.027 5.304 352.541 5.304C351.407 5.304 350.561 6.33 350.561 7.842V12H349.067V4.134H350.561V5.736C350.849 4.836 351.659 3.918 352.793 3.918C353.279 3.918 353.639 4.044 353.909 4.278ZM258.75 24.544C258.75 22.912 259.35 21.244 260.418 20.08H261.414C260.166 21.508 259.794 23.02 259.794 24.544C259.794 26.068 260.166 27.58 261.414 29.008H260.418C259.35 27.844 258.75 26.176 258.75 24.544ZM263.503 28H262.459V20.44H263.503V23.68H267.847V20.44H268.891V28H267.847V24.532H263.503V28ZM272.853 20.44H273.993L277.137 28H276.033L275.121 25.78H271.677L270.789 28H269.769L272.853 20.44ZM273.357 21.592L272.001 24.952H274.785L273.405 21.592H273.357ZM281.189 22.852L281.093 23.752C280.805 23.596 280.601 23.536 280.277 23.536C279.521 23.536 278.957 24.22 278.957 25.228V28H277.961V22.756H278.957V23.824C279.149 23.224 279.689 22.612 280.445 22.612C280.769 22.612 281.009 22.696 281.189 22.852ZM286.314 23.752C286.59 23.104 287.238 22.612 288.078 22.612C289.446 22.612 289.926 23.56 289.926 24.748V28H288.93V24.832C288.93 23.956 288.57 23.404 287.766 23.404C287.022 23.404 286.422 24.028 286.422 24.988V28H285.426V24.832C285.426 23.956 285.066 23.404 284.262 23.404C283.518 23.404 282.93 24.028 282.93 24.988V28H281.934V22.756H282.93V23.692C283.182 23.056 283.794 22.612 284.598 22.612C285.534 22.612 286.086 23.068 286.314 23.752ZM291.923 25.384C291.923 26.548 292.511 27.376 293.567 27.376C294.635 27.376 295.235 26.548 295.235 25.384C295.235 24.208 294.635 23.392 293.567 23.392C292.511 23.392 291.923 24.208 291.923 25.384ZM296.255 25.384C296.255 27.016 295.115 28.144 293.567 28.144C292.031 28.144 290.903 27.016 290.903 25.384C290.903 23.752 292.031 22.612 293.567 22.612C295.115 22.612 296.255 23.752 296.255 25.384ZM298.282 24.988V28H297.286V22.756H298.282V23.692C298.534 23.056 299.242 22.612 300.022 22.612C301.39 22.612 301.942 23.524 301.942 24.748V28H300.946V24.832C300.946 23.956 300.526 23.404 299.698 23.404C298.906 23.404 298.282 24.028 298.282 24.988ZM304.896 30.016H303.924L304.776 27.988L302.568 22.756H303.612L305.28 26.788H305.328L306.936 22.756H307.92L304.896 30.016ZM308.388 24.22C308.388 21.892 310.008 20.296 312.096 20.296C314.256 20.296 315.48 21.628 315.624 23.572L314.616 23.62C314.532 22.228 313.656 21.184 312.096 21.184C310.56 21.184 309.456 22.36 309.456 24.22C309.456 26.08 310.56 27.256 312.096 27.256C313.656 27.256 314.532 26.212 314.616 24.82L315.624 24.868C315.48 26.812 314.256 28.144 312.096 28.144C310.008 28.144 308.388 26.548 308.388 24.22ZM319.944 25.66V25.408L318.768 25.66C317.94 25.84 317.412 25.996 317.412 26.632C317.412 27.076 317.712 27.412 318.312 27.412C319.236 27.412 319.944 26.716 319.944 25.66ZM320.904 24.616V26.968C320.904 27.244 321.06 27.376 321.312 27.376C321.432 27.376 321.624 27.34 321.768 27.256V27.796C321.588 27.976 321.372 28.108 320.964 28.108C320.424 28.108 320.04 27.7 319.98 27.076C319.692 27.688 318.948 28.144 318.096 28.144C317.076 28.144 316.416 27.592 316.416 26.692C316.416 25.696 317.268 25.288 318.528 25.036L319.944 24.748V24.544C319.944 23.824 319.524 23.38 318.792 23.38C318.036 23.38 317.628 23.824 317.472 24.436L316.584 24.316C316.788 23.332 317.568 22.612 318.804 22.612C320.124 22.612 320.904 23.284 320.904 24.616ZM322.969 23.56H322.297V21.016H321.217V20.44H324.073V21.016H322.969V23.56ZM326.377 23.56H325.849L325.093 21.1H325.069V23.56H324.457V20.44H325.465L326.137 22.732H326.161L326.833 20.44H327.805V23.56H327.145V21.1H327.121L326.377 23.56ZM332.071 25.384C332.071 26.548 332.659 27.376 333.715 27.376C334.783 27.376 335.383 26.548 335.383 25.384C335.383 24.208 334.783 23.392 333.715 23.392C332.659 23.392 332.071 24.208 332.071 25.384ZM336.403 25.384C336.403 27.016 335.263 28.144 333.715 28.144C332.179 28.144 331.051 27.016 331.051 25.384C331.051 23.752 332.179 22.612 333.715 22.612C335.263 22.612 336.403 23.752 336.403 25.384ZM338.43 24.988V28H337.434V22.756H338.43V23.692C338.682 23.056 339.39 22.612 340.17 22.612C341.538 22.612 342.09 23.524 342.09 24.748V28H341.094V24.832C341.094 23.956 340.674 23.404 339.846 23.404C339.054 23.404 338.43 24.028 338.43 24.988ZM343.387 20.44H344.383V28H343.387V20.44ZM347.471 30.016H346.499L347.351 27.988L345.143 22.756H346.187L347.855 26.788H347.903L349.511 22.756H350.495L347.471 30.016ZM353.507 24.544C353.507 26.176 352.907 27.844 351.839 29.008H350.843C352.091 27.58 352.463 26.068 352.463 24.544C352.463 23.02 352.091 21.508 350.843 20.08H351.839C352.907 21.244 353.507 22.912 353.507 24.544Z" fill="#071D49"/>
</svg>
