<svg width="25" height="40" viewBox="0 0 25 40" fill="none" xmlns="http://www.w3.org/2000/svg">
<path d="M2.42136 25.5099C2.49907 26.4352 2.57677 27.3629 2.65447 28.2882C2.87427 30.9132 4.35287 33.2518 6.59076 34.5207L13.5176 38.4443C13.9705 38.7009 14.4544 38.9001 14.9629 39.0009C17.4627 39.5003 19.8316 37.9564 20.5309 35.5377L23.719 24.5135C24.1142 23.1506 23.9233 21.6778 23.1973 20.4685L23.1485 20.3883C22.5024 19.314 22.2981 18.0291 22.5202 16.7853C22.6778 15.9058 22.7511 14.9941 22.7333 14.0619C22.5979 7.08962 17.2096 1.31984 10.4627 0.928163C6.83053 0.717437 3.48924 2.04822 1.00936 4.34789" stroke="#00A3E0" stroke-width="0.666038" stroke-linecap="round" stroke-linejoin="round"/>
<path d="M16.2305 25.7775C16.5125 25.8645 17.2296 26.0454 18.0799 25.7775C18.6127 25.6102 19.0146 25.3239 19.2987 25.0537C19.6162 24.7536 19.7072 24.2772 19.5319 23.874C19.3565 23.4709 18.595 21.9798 18.3863 21.5034C17.0697 18.5234 17.3539 16.6315 17.3539 16.6315" stroke="#00A3E0" stroke-width="0.666038" stroke-linecap="round" stroke-linejoin="round"/>
</svg>
