<svg class="left-wave" width="336" height="118" viewBox="0 0 336 118" fill="none"
          xmlns="http://www.w3.org/2000/svg">
          <g clip-path="url(#clip0_92_1346)">
            <path
              d="M320.381 150.466C200.658 50.898 138.93 140.48 85.1425 100.679C3.44489 40.2303 -24.0559 105.95 -112.445 83.8149"
              stroke="#1DA1DC" stroke-width="1.25764" stroke-miterlimit="10" />
            <path
              d="M321.047 151.388C202.979 54.6725 139.524 141.923 84.4732 102.07C2.23201 42.5428 -26.4435 105.328 -112.954 82.38"
              stroke="#1D9ED8" stroke-width="1.25764" stroke-miterlimit="10" />
            <path
              d="M321.528 152.743C205.094 58.8923 139.945 143.821 83.6143 103.912C0.871485 45.2833 -29.0415 105.167 -113.642 81.4164"
              stroke="#1D9BD5" stroke-width="1.25764" stroke-miterlimit="10" />
            <path
              d="M321.866 154.512C207.071 63.509 140.228 146.116 82.612 106.166C-0.648564 48.4318 -31.762 105.408 -114.474 80.8655"
              stroke="#1C98D1" stroke-width="1.25764" stroke-miterlimit="10" />
            <path
              d="M322.045 156.687C208.885 68.5484 140.368 148.823 81.4561 108.811C-2.28035 51.9486 -34.6361 106.04 -115.47 80.6844"
              stroke="#1C95CE" stroke-width="1.25764" stroke-miterlimit="10" />
            <path
              d="M322.074 159.238C210.553 73.9472 140.363 151.889 80.1456 111.848C-4.06662 55.857 -37.6696 107.079 -116.61 80.9158"
              stroke="#1C92CA" stroke-width="1.25764" stroke-miterlimit="10" />
            <path
              d="M321.953 162.111C212.071 79.6684 140.212 155.262 78.6889 115.191C-5.97336 60.0444 -40.8445 108.409 -117.907 81.4325"
              stroke="#1C8FC7" stroke-width="1.25764" stroke-miterlimit="10" />
            <path
              d="M321.697 165.311C213.449 85.7325 139.938 158.982 77.0768 118.872C-8.03553 64.5698 -44.1957 110.088 -119.348 82.3082"
              stroke="#1C8CC3" stroke-width="1.25764" stroke-miterlimit="10" />
            <path
              d="M321.301 168.801C214.709 92.0759 139.533 162.96 75.3459 122.832C-10.2067 69.3425 -47.6449 112.035 -120.909 83.4632"
              stroke="#1B89C0" stroke-width="1.25764" stroke-miterlimit="10" />
            <path
              d="M320.762 172.581C215.809 98.704 138.981 167.245 73.4671 127.098C-12.5098 74.4257 -51.2467 114.303 -122.628 84.9028"
              stroke="#1B86BC" stroke-width="1.25764" stroke-miterlimit="10" />
            <path
              d="M320.094 176.619C216.775 105.606 138.309 171.755 71.4589 131.622C-14.9324 79.7352 -54.9731 116.814 -124.465 86.6218"
              stroke="#1B82B9" stroke-width="1.25764" stroke-miterlimit="10" />
            <path
              d="M319.304 180.884C217.624 112.719 137.532 176.497 69.3337 136.356C-17.456 85.2596 -58.8214 119.551 -126.436 88.5459"
              stroke="#1B7FB5" stroke-width="1.25764" stroke-miterlimit="10" />
            <path
              d="M318.38 185.353C218.335 120.052 136.62 181.443 67.07 141.311C-20.1293 90.9837 -62.8033 122.493 -128.524 90.6795"
              stroke="#1A7CB2" stroke-width="1.25764" stroke-miterlimit="10" />
            <path
              d="M317.341 190.032C218.935 127.58 135.583 186.578 64.6799 146.455C-22.9081 96.8859 -66.9325 125.635 -130.759 93.0135"
              stroke="#1A79AE" stroke-width="1.25764" stroke-miterlimit="10" />
            <path
              d="M316.167 194.863C219.4 135.259 134.442 191.875 62.1821 151.777C-25.7785 102.971 -71.1484 128.944 -133.081 95.5143"
              stroke="#1A76AA" stroke-width="1.25764" stroke-miterlimit="10" />
            <path
              d="M314.881 199.836C219.748 143.095 133.178 197.292 59.5557 157.235C-28.7886 109.171 -75.4979 132.404 -135.537 98.1671"
              stroke="#1A73A7" stroke-width="1.25764" stroke-miterlimit="10" />
          </g>
          <defs>
            <clipPath id="clip0_92_1346">
              <rect width="460.8" height="107.101" fill="white"
                transform="translate(303.808 236.71) rotate(-163.061)" />
            </clipPath>
          </defs>
        </svg>